# xmcd
#
# Track frame offsets:
#	150
#	19592
#	40176
#	60652
#	83094
#	101070
#	122264
#	143342
#	163138
#	183200
#
# Disc length: 2670 seconds
#
# Revision: 0
# Processed by: cddbd v1.5.1PL0 Copyright (c) Steve Scherf et al.
# Submitted via: dBpowerAMP V4.0
#
DISCID=710a6c0a
DTITLE=Earl Thomas - Intersection
DYEAR=2005
DGENRE=Soul
TTITLE0=Workin' Together
TTITLE1=The Higher ground [Everything Is Alright]
TTITLE2=The bright Side Of You [Let Me See]
TTITLE3=Bang A Gong
TTITLE4=Sweet Like Sugar
TTITLE5=The Lucky One
TTITLE6=Life Of My Broken Heart
TTITLE7=No Two Wrongs
TTITLE8=Your Daddy's Eyes
TTITLE9=Brown Sugar
EXTD=
EXTT0=
EXTT1=
EXTT2=
EXTT3=
EXTT4=
EXTT5=
EXTT6=
EXTT7=
EXTT8=
EXTT9=
PLAYORDER=
